<svg id="Capa_1" enable-background="new 0 0 512 512" height="512" fill="#E63022" viewBox="0 0 512 512" width="512" xmlns="http://www.w3.org/2000/svg"><g><path d="m256 110.444c-34.585 0-62.722 28.137-62.722 62.722s28.137 62.723 62.722 62.723c8.103 0 15.992-1.525 23.45-4.532 3.841-1.55 5.699-5.92 4.15-9.762-1.549-3.841-5.915-5.697-9.762-4.15-5.666 2.286-11.668 3.444-17.839 3.444-26.313 0-47.722-21.408-47.722-47.723 0-26.313 21.408-47.722 47.722-47.722s47.723 21.408 47.723 47.722c0 8.788-2.406 17.375-6.96 24.832-2.158 3.535-1.042 8.15 2.493 10.31 3.533 2.158 8.15 1.043 10.31-2.493 5.99-9.812 9.157-21.102 9.157-32.648.001-34.586-28.137-62.723-62.722-62.723z"/><path d="m256 138.055c-19.36 0-35.111 15.751-35.111 35.111s15.751 35.111 35.111 35.111 35.111-15.751 35.111-35.111-15.751-35.111-35.111-35.111zm0 55.222c-11.09 0-20.111-9.021-20.111-20.111s9.021-20.111 20.111-20.111 20.111 9.021 20.111 20.111-9.021 20.111-20.111 20.111z"/><circle cx="256" cy="173.166" r="7.5"/><path d="m200.778 332.527h110.444c4.143 0 7.5-3.357 7.5-7.5s-3.357-7.5-7.5-7.5h-110.444c-4.143 0-7.5 3.357-7.5 7.5s3.358 7.5 7.5 7.5z"/><path d="m200.778 387.75h110.444c4.143 0 7.5-3.357 7.5-7.5v-27.611c0-4.143-3.357-7.5-7.5-7.5h-110.444c-4.143 0-7.5 3.357-7.5 7.5v27.611c0 4.143 3.358 7.5 7.5 7.5zm7.5-27.611h95.444v12.611h-95.444z"/><circle cx="318.869" cy="236.036" r="7.5"/><circle cx="338.447" cy="255.613" r="7.5"/><circle cx="358.025" cy="275.191" r="7.5"/><circle cx="193.131" cy="110.297" r="7.5"/><circle cx="173.553" cy="90.719" r="7.5"/><circle cx="153.975" cy="71.142" r="7.5"/><circle cx="318.869" cy="110.297" r="7.5"/><circle cx="338.447" cy="90.719" r="7.5"/><circle cx="358.025" cy="71.142" r="7.5"/><circle cx="193.131" cy="236.036" r="7.5"/><circle cx="173.553" cy="255.613" r="7.5"/><circle cx="153.975" cy="275.191" r="7.5"/><path d="m392.297 262.174-18.353-27.014v-123.987l18.353-27.014c9.168-13.496 7.449-31.665-4.088-43.203-7.567-7.566-17.987-10.909-28.07-9.727v-22.554c0-4.783-3.892-8.675-8.675-8.675h-33.752c-3.081 0-5.865 1.575-7.447 4.214-1.567 2.613-1.647 5.911-.209 8.608.914 1.711 1.308 3.661 1.137 5.641-.417 4.851-4.562 8.861-9.436 9.132-2.818.146-5.471-.816-7.497-2.735-2.03-1.921-3.148-4.517-3.148-7.31 0-1.679.396-3.271 1.177-4.729 1.442-2.693 1.367-5.991-.199-8.605-1.581-2.64-4.363-4.216-7.444-4.216h-57.278c-3.081 0-5.865 1.575-7.447 4.214-1.567 2.613-1.647 5.911-.209 8.608.915 1.712 1.309 3.662 1.138 5.64-.418 4.852-4.562 8.862-9.438 9.133-2.797.155-5.469-.816-7.496-2.734-2.03-1.921-3.148-4.518-3.148-7.311 0-1.677.396-3.27 1.181-4.734 1.439-2.694 1.361-5.99-.204-8.604-1.582-2.638-4.364-4.212-7.442-4.212h-33.767c-4.783 0-8.675 3.892-8.675 8.675v22.554c-10.084-1.182-20.505 2.161-28.071 9.728-11.536 11.537-13.255 29.706-4.087 43.202l18.353 27.014v123.987l-18.352 27.013c-9.169 13.495-7.45 31.664 4.087 43.202 4.09 4.089 9.012 6.945 14.265 8.519v38.744c0 4.143 3.357 7.5 7.5 7.5s7.5-3.357 7.5-7.5v-37.697c4.38-.671 8.672-2.203 12.611-4.622v97.541c0 4.143 3.357 7.5 7.5 7.5h165.666c4.143 0 7.5-3.357 7.5-7.5v-97.541c3.94 2.418 8.232 3.951 12.611 4.622v126.836h-205.888v-54.137c0-4.143-3.357-7.5-7.5-7.5s-7.5 3.357-7.5 7.5v60.633c0 4.689 3.815 8.505 8.505 8.505h5.301v46.547c0 4.784 3.892 8.676 8.675 8.676h33.767c3.078 0 5.86-1.574 7.44-4.212 1.566-2.613 1.646-5.91.204-8.605-.783-1.464-1.18-3.057-1.18-4.733 0-2.793 1.118-5.389 3.148-7.31 2.027-1.919 4.698-2.897 7.496-2.735 4.875.271 9.02 4.281 9.438 9.132.171 1.979-.223 3.929-1.138 5.643-1.439 2.695-1.358 5.993.209 8.606 1.582 2.64 4.366 4.215 7.447 4.215h57.278c3.08 0 5.862-1.576 7.442-4.216 1.566-2.615 1.642-5.913.201-8.602-.782-1.463-1.179-3.055-1.179-4.733 0-2.793 1.118-5.389 3.148-7.31 2.027-1.919 4.7-2.897 7.496-2.735 4.875.271 9.02 4.281 9.437 9.132.171 1.979-.223 3.93-1.137 5.643-1.439 2.695-1.358 5.993.209 8.606 1.582 2.64 4.366 4.215 7.447 4.215h33.752c4.783 0 8.675-3.892 8.675-8.676v-46.547h5.301c4.689 0 8.505-3.815 8.505-8.505v-134.38c5.252-1.575 10.175-4.43 14.266-8.519 11.537-11.537 13.256-29.706 4.088-43.201zm-33.353-49.094-.601-.884c-16.108-23.71-16.108-54.35 0-78.06l.601-.884zm-192.083-198.08h19.037c-.806 7.847 2.177 15.523 7.709 20.757 5.052 4.78 11.671 7.204 18.635 6.814 12.365-.685 22.491-10.496 23.553-22.823.137-1.593.124-3.182-.035-4.748h40.482c-.807 7.848 2.178 15.523 7.708 20.755 5.053 4.781 11.664 7.192 18.636 6.816 12.366-.685 22.491-10.496 23.552-22.823.137-1.593.124-3.182-.035-4.748h19.036v21.781c-.044.03-.088.059-.132.089l-27.014 18.353h-54.493v-20.113c0-4.143-3.357-7.5-7.5-7.5s-7.5 3.357-7.5 7.5v20.111h-1.777c-4.143 0-7.5 3.357-7.5 7.5s3.357 7.5 7.5 7.5h49.192l-.884.601c-23.711 16.107-54.352 16.106-78.061 0l-1.983-1.347c2.506-1.214 4.234-3.782 4.234-6.754 0-4.143-3.357-7.5-7.5-7.5h-17.715l-27.014-18.353c-.044-.03-.088-.059-.132-.089v-21.779zm-13.805 118.253.601.884c16.108 23.71 16.108 54.35 0 78.06l-.601.884zm178.277 267.107h-150.666v-95.444h150.666zm-135.568-110.444 21.205-14.406c23.71-16.108 54.351-16.108 78.061 0l21.205 14.406zm149.374 207.084h-19.036c.159-1.567.172-3.156.035-4.749-1.061-12.327-11.186-22.139-23.553-22.823-6.967-.399-13.583 2.035-18.635 6.816-5.508 5.211-8.517 12.875-7.708 20.756h-40.482c.159-1.567.172-3.156.035-4.75-1.062-12.326-11.188-22.138-23.554-22.822-6.965-.399-13.584 2.035-18.635 6.816-5.508 5.211-8.517 12.875-7.708 20.756h-19.037v-40.223h81.639v20.111c0 4.143 3.357 7.5 7.5 7.5s7.5-3.357 7.5-7.5v-20.111h81.639zm32.465-202.231c-6.455 6.453-16.617 7.415-24.167 2.286l-49.977-33.953c-28.832-19.586-66.09-19.586-94.92 0l-49.977 33.953c-7.549 5.128-17.713 4.167-24.166-2.285-6.453-6.454-7.415-16.617-2.286-24.166 32.061-47.193-16.937 24.93 33.953-49.978 19.586-28.831 19.586-66.089 0-94.919-11.993-17.654-20.844-30.682-33.953-49.978-5.129-7.549-4.167-17.713 2.285-24.166 6.476-6.475 16.643-7.398 24.167-2.286 10.386 7.056 40.045 27.206 49.977 33.953 28.832 19.586 66.09 19.586 94.92 0 9.931-6.747 39.6-26.904 49.977-33.953 7.381-5.016 17.588-4.292 24.166 2.287 6.454 6.453 7.415 16.616 2.286 24.165-13.109 19.296-21.96 32.324-33.953 49.978-19.586 28.83-19.586 66.088 0 94.919l14.274 21.01c.014.02.028.041.041.061l19.638 28.906c5.129 7.549 4.167 17.712-2.285 24.166z"/></g></svg>