<?xml version="1.0"?>
<svg xmlns="http://www.w3.org/2000/svg" fill="#E3008C" width="512" height="512" viewBox="0 0 48 48"><path d="M43,23H39.837a3.464,3.464,0,0,0-5.189-1.957A13.014,13.014,0,0,0,22,11H10a1,1,0,0,0-.782,1.624A16.935,16.935,0,0,1,10.688,15H5a1,1,0,0,0,0,2h6.6A18.984,18.984,0,0,1,13,24a18.984,18.984,0,0,1-1.4,7H5a1,1,0,0,0,0,2h5.688a16.935,16.935,0,0,1-1.47,2.376A1,1,0,0,0,10,37H22A12.955,12.955,0,0,0,34.651,26.959,3.464,3.464,0,0,0,39.837,25H43a1,1,0,0,0,0-2ZM29.783,31.783A10.933,10.933,0,0,1,22,35H11.875A21.832,21.832,0,0,0,15,24a21.832,21.832,0,0,0-3.125-11H22a11.007,11.007,0,0,1,7.783,18.783ZM36.5,25.5A1.5,1.5,0,1,1,38,24,1.5,1.5,0,0,1,36.5,25.5Z"/></svg>
