<svg id="Glyph" height="512" fill="#00A4A6" viewBox="0 0 64 64" width="512" xmlns="http://www.w3.org/2000/svg"><g><path d="m60 7.23077a3.24021 3.24021 0 0 0 -3.23077-3.23077h-23.69233v26.9231h26.9231zm-7.62463 11.30768h-11.67383a1.07691 1.07691 0 1 1 0-2.15381h11.67383a1.07691 1.07691 0 0 1 0 2.15381z"/><path d="m60 56.76923v-23.69233h-26.9231v26.9231h23.69233a3.24021 3.24021 0 0 0 3.23077-3.23077zm-8.57233-6.86a1.07245 1.07245 0 0 1 0 1.51843 1.07891 1.07891 0 0 1 -1.51843 0l-3.37079-3.37079-3.37079 3.37079a1.07891 1.07891 0 0 1 -1.51843 0 1.07247 1.07247 0 0 1 0-1.51843l3.37077-3.37078-3.37079-3.37079a1.07369 1.07369 0 0 1 1.51843-1.51843l3.37081 3.37077 3.37079-3.37079a1.07369 1.07369 0 0 1 1.51843 1.51843l-3.37079 3.37079z"/><path d="m7.23077 60h23.69233v-26.9231h-26.9231v23.69233a3.24021 3.24021 0 0 0 3.23077 3.23077zm10.23078-4.49072a2.69233 2.69233 0 1 1 2.69232-2.69228 2.69332 2.69332 0 0 1 -2.69232 2.69228zm0-17.94159a2.69229 2.69229 0 1 1 -2.69232 2.69231 2.69328 2.69328 0 0 1 2.69232-2.69231zm-5.83692 7.89386h11.67383a1.07691 1.07691 0 1 1 0 2.15381h-11.67383a1.07691 1.07691 0 0 1 0-2.15381z"/><path d="m30.9231 4h-23.69233a3.24021 3.24021 0 0 0 -3.23077 3.23077v23.69233h26.9231zm-7.62464 14.53845h-4.76v4.76a1.07691 1.07691 0 1 1 -2.15381 0v-4.76h-4.76a1.07691 1.07691 0 0 1 0-2.15381h4.76v-4.76a1.07691 1.07691 0 0 1 2.15381 0v4.76h4.76a1.07691 1.07691 0 1 1 0 2.15381z"/></g></svg>