<?xml version="1.0" encoding="UTF-8"?><svg id="Layer_1" xmlns="http://www.w3.org/2000/svg" viewBox="0 0 34.85 34.85"><defs><style>.cls-1{fill:#fff;}</style></defs><polygon class="cls-1" points="0 0 0 34.85 3.08 34.85 3.08 15.33 7.27 15.33 .92 0 0 0"/><path class="cls-1" d="m18.33,14.61c-.84-.89-1.49-1.95-1.95-3.18-.41-1.09-.62-2.28-.66-3.55l-3.19,7.68c.33.07.65.14.95.23,1.01.32,1.83.75,2.48,1.32.65.56,1.13,1.23,1.44,2.01.31.78.47,1.62.47,2.53,0,.96-.16,1.85-.49,2.65s-.82,1.49-1.48,2.07-1.49,1.03-2.49,1.34c-1,.32-2.18.48-3.52.48h-2.64v6.66h13.31v-18.55c-.85-.45-1.59-1.01-2.23-1.69"/><path class="cls-1" d="m9.55,11.2c.16.5.31,1.03.44,1.57.12-.55.26-1.07.4-1.57.15-.5.31-.96.47-1.39L14.64,0H5.27l3.79,9.81c.17.42.33.89.49,1.39"/><path class="cls-1" d="m9.9,18.41h-2.64v6.68h2.64c1.31,0,2.27-.31,2.87-.92.61-.61.91-1.45.91-2.51,0-.49-.08-.93-.23-1.33s-.39-.74-.7-1.03c-.31-.28-.7-.5-1.18-.66-.47-.15-1.03-.23-1.68-.23"/><path class="cls-1" d="m34.85,0h-2.26l-1.4,1.85c-.08.12-.19.22-.32.31-.13.09-.31.13-.53.13s-.45-.08-.67-.23c-.23-.15-.51-.32-.84-.51s-.74-.36-1.24-.51-1.13-.23-1.89-.23c-.84,0-1.62.15-2.32.45-.7.3-1.31.73-1.82,1.29s-.9,1.25-1.18,2.07c-.28.82-.42,1.75-.42,2.8s.15,1.99.45,2.82c.3.82.71,1.52,1.24,2.09s1.14,1,1.84,1.29,1.45.44,2.25.44c.47,0,.9-.02,1.29-.07.38-.05.74-.12,1.07-.23s.64-.25.93-.42.59-.39.88-.65c.1-.08.21-.15.32-.2s.23-.08.36-.08c.23,0,.43.08.58.24l1.66,1.72c-.82,1.01-1.83,1.78-3.04,2.3-1.21.52-2.65.78-4.32.78-.26,0-.5-.02-.75-.03v14.22h7.81v3.21h2.3V0h.02Z"/></svg>