<?xml version="1.0" encoding="UTF-8"?><svg id="Layer_1" xmlns="http://www.w3.org/2000/svg" viewBox="0 0 150.01 44.01"><defs><style>.cls-1{fill:#fff;}</style></defs><g><polygon class="cls-1" points="0 0 0 34.85 3.08 34.85 3.08 15.33 7.27 15.33 .92 0 0 0"/><path class="cls-1" d="m18.33,14.61c-.84-.89-1.49-1.95-1.95-3.18-.41-1.09-.62-2.28-.66-3.55l-3.19,7.68c.33.07.65.14.95.23,1.01.32,1.83.75,2.48,1.32.65.56,1.13,1.23,1.44,2.01.31.78.47,1.62.47,2.53,0,.96-.16,1.85-.49,2.65s-.82,1.49-1.48,2.07-1.49,1.03-2.49,1.34c-1,.32-2.18.48-3.52.48h-2.64v6.66h13.31v-18.55c-.85-.45-1.59-1.01-2.23-1.69"/><path class="cls-1" d="m9.55,11.2c.16.5.31,1.03.44,1.57.12-.55.26-1.07.4-1.57.15-.5.31-.96.47-1.39L14.64,0H5.27l3.79,9.81c.17.42.33.89.49,1.39"/><path class="cls-1" d="m9.9,18.41h-2.64v6.68h2.64c1.31,0,2.27-.31,2.87-.92.61-.61.91-1.45.91-2.51,0-.49-.08-.93-.23-1.33s-.39-.74-.7-1.03c-.31-.28-.7-.5-1.18-.66-.47-.15-1.03-.23-1.68-.23"/><path class="cls-1" d="m34.85,0h-2.26l-1.4,1.85c-.08.12-.19.22-.32.31-.13.09-.31.13-.53.13s-.45-.08-.67-.23c-.23-.15-.51-.32-.84-.51s-.74-.36-1.24-.51-1.13-.23-1.89-.23c-.84,0-1.62.15-2.32.45-.7.3-1.31.73-1.82,1.29s-.9,1.25-1.18,2.07c-.28.82-.42,1.75-.42,2.8s.15,1.99.45,2.82c.3.82.71,1.52,1.24,2.09s1.14,1,1.84,1.29,1.45.44,2.25.44c.47,0,.9-.02,1.29-.07.38-.05.74-.12,1.07-.23s.64-.25.93-.42.59-.39.88-.65c.1-.08.21-.15.32-.2s.23-.08.36-.08c.23,0,.43.08.58.24l1.66,1.72c-.82,1.01-1.83,1.78-3.04,2.3-1.21.52-2.65.78-4.32.78-.26,0-.5-.02-.75-.03v14.22h7.81v3.21h2.3V0h.02Z"/></g><g><path class="cls-1" d="m4.02,41.67v1.84c-.23.17-.48.29-.74.37-.26.08-.54.12-.84.12-.37,0-.71-.06-1.01-.17-.3-.12-.56-.28-.77-.48-.21-.21-.38-.45-.49-.74-.11-.28-.17-.59-.17-.93s.06-.65.17-.94c.11-.28.27-.53.47-.74.2-.21.45-.36.74-.48.29-.11.62-.17.98-.17.18,0,.36,0,.52.04.16.03.31.07.45.12s.26.11.38.19.22.15.31.24l-.24.38c-.04.06-.09.1-.15.11-.06,0-.13,0-.2-.05-.07-.04-.14-.08-.21-.12-.07-.04-.15-.07-.23-.1s-.18-.05-.29-.07-.23-.03-.37-.03c-.22,0-.43.04-.61.11-.18.08-.34.18-.46.32-.13.14-.23.31-.3.51-.07.2-.1.42-.1.66,0,.26.04.49.11.7.07.2.18.38.31.52.14.14.3.25.49.32s.4.11.64.11c.17,0,.32-.02.45-.05.13-.04.26-.08.39-.14v-.82h-.57s-.1-.02-.13-.05-.05-.07-.05-.11v-.48h1.52Z"/><path class="cls-1" d="m6,40.08v1.26h1.59v.65h-1.59v1.29h2.02v.68h-2.87v-4.54h2.87v.67h-2.02Z"/><path class="cls-1" d="m12.83,39.41v4.54h-.43c-.07,0-.12,0-.17-.03s-.09-.06-.13-.11l-2.37-3.03c.01.14.02.27.02.38v2.79h-.74v-4.54h.53s.05,0,.07.02c.02,0,.04.02.06.04s.04.04.06.07l2.38,3.04c0-.07-.01-.15-.02-.22s0-.14,0-.2v-2.76h.74Z"/><path class="cls-1" d="m14.94,40.08v1.26h1.59v.65h-1.59v1.29h2.02v.68h-2.87v-4.54h2.87v.67h-2.02,0Z"/><path class="cls-1" d="m21.48,43.95h-.76c-.14,0-.25-.06-.31-.17l-.96-1.45s-.07-.09-.12-.12c-.04-.02-.11-.03-.19-.03h-.36v1.78h-.85v-4.54h1.39c.31,0,.57.03.79.1.22.06.4.15.54.27.14.12.25.25.31.41.07.16.1.34.1.53,0,.15-.02.3-.07.43-.05.14-.11.26-.19.37s-.19.21-.31.29c-.12.08-.27.15-.43.2.05.03.1.07.15.11s.09.09.13.15l1.14,1.68h0Zm-2.17-2.39c.16,0,.3-.02.42-.06s.22-.09.29-.16c.08-.07.13-.15.17-.25s.06-.2.06-.32c0-.23-.08-.41-.23-.53s-.38-.19-.7-.19h-.54v1.51h.53Z"/><path class="cls-1" d="m26.42,43.95h-.65c-.07,0-.13-.02-.18-.05s-.08-.08-.1-.14l-.34-.93h-1.88l-.34.93s-.05.09-.1.13c-.05.04-.11.06-.18.06h-.66l1.79-4.54h.86s1.78,4.54,1.78,4.54Zm-1.49-1.72l-.55-1.51c-.03-.07-.06-.15-.08-.24-.03-.09-.06-.19-.09-.3-.03.11-.06.21-.08.3-.03.09-.06.17-.08.24l-.55,1.51h1.45-.02Z"/><path class="cls-1" d="m29.8,40.1h-1.37v3.85h-.85v-3.85h-1.37v-.69h3.59s0,.69,0,.69Z"/><path class="cls-1" d="m31.43,43.95h-.85v-4.54h.85v4.54Z"/><path class="cls-1" d="m36.53,39.41v4.54h-.43c-.07,0-.12,0-.17-.03s-.09-.06-.13-.11l-2.37-3.03c0,.14.02.27.02.38v2.79h-.74v-4.54h.53s.05,0,.07.02c.02,0,.04.02.06.04s.04.04.06.07l2.38,3.04c0-.07,0-.15-.02-.22v-2.96h.74,0Z"/><path class="cls-1" d="m41.55,41.67v1.84c-.23.17-.48.29-.74.37-.26.08-.54.12-.84.12-.37,0-.71-.06-1.01-.17-.3-.12-.56-.28-.77-.48-.21-.21-.38-.45-.49-.74-.12-.28-.17-.6-.17-.93s.06-.65.17-.94c.11-.28.27-.53.47-.74.2-.21.45-.36.74-.48.29-.11.62-.17.98-.17.18,0,.36,0,.52.04.16.03.31.07.45.12s.26.11.38.19.22.15.31.24l-.24.38c-.04.06-.09.1-.15.11-.06,0-.13,0-.2-.05-.07-.04-.14-.08-.21-.12-.07-.04-.15-.07-.23-.1-.08-.03-.18-.05-.29-.07s-.23-.03-.37-.03c-.22,0-.43.04-.61.11-.18.08-.34.18-.46.32-.13.14-.23.31-.3.51-.07.2-.1.42-.1.66,0,.26.04.49.11.7.07.2.18.38.31.52.14.14.3.25.49.32.19.07.4.11.64.11.17,0,.32-.02.45-.05.13-.04.26-.08.39-.14v-.82h-.57s-.1-.02-.13-.05-.05-.07-.05-.11v-.48h1.52Z"/><path class="cls-1" d="m47.75,42.88s.09.02.12.05l.33.36c-.18.23-.41.4-.68.52s-.59.18-.97.18c-.34,0-.64-.06-.91-.17-.27-.12-.5-.28-.69-.48-.19-.21-.34-.45-.44-.74-.1-.28-.15-.6-.15-.93s.05-.65.16-.94c.11-.28.26-.53.46-.73.2-.21.43-.36.71-.48.27-.11.58-.17.91-.17s.62.05.88.16c.26.11.47.25.66.43l-.28.39s-.04.05-.06.07-.06.03-.11.03c-.03,0-.06,0-.1-.03-.03-.02-.07-.04-.11-.07s-.09-.06-.14-.09-.11-.06-.18-.09-.15-.05-.24-.07-.2-.03-.32-.03c-.2,0-.39.04-.56.11-.17.07-.31.18-.44.31-.12.14-.22.3-.28.5-.07.2-.1.42-.1.68s.04.48.11.68.17.37.29.5c.12.14.27.24.44.31s.35.11.54.11c.12,0,.22,0,.31-.02.09,0,.18-.03.26-.06.08-.03.15-.06.22-.11.07-.04.14-.1.21-.16.02-.02.04-.03.07-.05.02,0,.05-.02.07-.02v.05Z"/><path class="cls-1" d="m52.84,39.41v4.54h-.85v-1.99h-2.13v1.99h-.85v-4.54h.85v1.95h2.13v-1.95h.85Z"/><path class="cls-1" d="m58.01,43.95h-.65c-.07,0-.13-.02-.18-.05s-.08-.08-.1-.14l-.34-.93h-1.88l-.34.93s-.05.09-.1.13-.11.06-.18.06h-.66l1.79-4.54h.86s1.78,4.54,1.78,4.54Zm-1.49-1.72l-.55-1.51c-.03-.07-.06-.15-.08-.24-.03-.09-.06-.19-.09-.3-.03.11-.06.21-.08.3-.03.09-.06.17-.08.24l-.55,1.51h1.45-.02Z"/><path class="cls-1" d="m62.57,39.41v4.54h-.43c-.07,0-.12,0-.17-.03s-.09-.06-.13-.11l-2.37-3.03c0,.14.02.27.02.38v2.79h-.74v-4.54h.53s.05,0,.07.02.04.02.06.04.04.04.06.07l2.38,3.04c0-.07,0-.15-.02-.22v-2.96h.74,0Z"/><path class="cls-1" d="m67.59,41.67v1.84c-.23.17-.48.29-.74.37-.26.08-.54.12-.84.12-.37,0-.71-.06-1.01-.17-.3-.12-.56-.28-.77-.48s-.38-.45-.49-.74c-.12-.28-.17-.6-.17-.93s.06-.65.17-.94c.11-.28.27-.53.47-.74s.45-.36.74-.48c.29-.11.62-.17.98-.17.18,0,.36,0,.52.04.16.03.31.07.45.12s.26.11.38.19.22.15.31.24l-.24.38c-.04.06-.09.1-.15.11-.06,0-.13,0-.2-.05-.07-.04-.14-.08-.21-.12s-.15-.07-.23-.1-.18-.05-.29-.07-.23-.03-.37-.03c-.22,0-.43.04-.61.11-.18.08-.34.18-.46.32-.13.14-.23.31-.3.51-.07.2-.1.42-.1.66,0,.26.04.49.11.7s.18.38.31.52c.14.14.3.25.49.32.19.07.4.11.64.11.17,0,.32-.02.45-.05.13-.04.26-.08.39-.14v-.82h-.57c-.05,0-.1-.02-.13-.05s-.05-.07-.05-.11v-.48h1.52Z"/><path class="cls-1" d="m69.58,40.08v1.26h1.59v.65h-1.59v1.29h2.02v.68h-2.87v-4.54h2.87v.67h-2.02Z"/><path class="cls-1" d="m72.29,43.52c0-.06.01-.13.04-.19s.06-.11.1-.15.09-.08.15-.1c.06-.03.12-.04.19-.04s.13,0,.19.04.11.06.15.1.08.09.1.15c.03.06.04.12.04.19s-.01.13-.04.19c-.03.06-.06.11-.1.15s-.09.08-.15.1c-.06.02-.12.04-.19.04s-.13,0-.19-.04c-.06-.02-.11-.06-.15-.1-.04-.04-.07-.09-.1-.15-.02-.06-.04-.12-.04-.19Z"/><path class="cls-1" d="m79.21,40.1h-1.37v3.85h-.85v-3.85h-1.37v-.69h3.59s0,.69,0,.69Z"/><path class="cls-1" d="m83.55,43.95h-.76c-.14,0-.25-.06-.31-.17l-.96-1.45s-.07-.09-.12-.12c-.04-.02-.11-.03-.19-.03h-.36v1.78h-.85v-4.54h1.39c.31,0,.57.03.79.1.22.06.4.15.54.27s.25.25.31.41c.07.16.1.34.1.53,0,.15-.02.3-.07.43-.05.14-.11.26-.19.37s-.19.21-.31.29c-.12.08-.27.15-.43.2.05.03.1.07.15.11s.09.09.13.15l1.14,1.68h0Zm-2.17-2.39c.16,0,.3-.02.42-.06s.22-.09.29-.16c.08-.07.13-.15.17-.25s.06-.2.06-.32c0-.23-.08-.41-.23-.53s-.38-.19-.7-.19h-.54v1.51h.53Z"/><path class="cls-1" d="m88.48,43.95h-.65c-.07,0-.13-.02-.18-.05-.05-.04-.08-.08-.1-.14l-.34-.93h-1.88l-.34.93s-.05.09-.1.13c-.05.04-.11.06-.18.06h-.66l1.79-4.54h.86s1.78,4.54,1.78,4.54Zm-1.49-1.72l-.55-1.51c-.03-.07-.06-.15-.08-.24-.03-.09-.06-.19-.09-.3-.03.11-.06.21-.08.3-.03.09-.06.17-.08.24l-.55,1.51h1.45-.02Z"/><path class="cls-1" d="m93.05,39.41v4.54h-.43c-.07,0-.12,0-.17-.03-.05-.02-.09-.06-.13-.11l-2.37-3.03c.01.14.02.27.02.38v2.79h-.74v-4.54h.53s.05,0,.07.02c.02,0,.04.02.06.04s.04.04.06.07l2.38,3.04c0-.07-.01-.15-.02-.22v-2.96h.74Z"/><path class="cls-1" d="m96.75,40.23s-.05.08-.08.1c-.03.02-.06.03-.11.03-.04,0-.09-.02-.14-.05s-.11-.07-.18-.11-.15-.08-.25-.11-.21-.05-.34-.05c-.12,0-.22,0-.31.04-.09.03-.16.07-.22.12s-.1.11-.13.18-.04.15-.04.23c0,.11.03.2.09.27s.14.13.24.18.21.1.34.14.25.08.39.13c.13.05.26.1.39.16s.24.14.34.23.18.2.24.33.09.29.09.48c0,.21-.04.4-.11.58s-.17.34-.31.47-.3.24-.49.31c-.19.08-.42.11-.67.11-.14,0-.29,0-.43-.04s-.27-.07-.4-.12c-.13-.05-.25-.12-.36-.19s-.21-.15-.3-.25l.25-.41s.05-.05.08-.07.07-.03.11-.03c.05,0,.11.02.17.06s.13.09.22.14c.08.05.18.1.29.14s.25.06.4.06c.24,0,.43-.06.56-.17.13-.11.2-.28.2-.49,0-.12-.03-.22-.09-.29-.06-.08-.14-.14-.24-.19s-.21-.09-.34-.13-.25-.07-.38-.12c-.13-.04-.26-.09-.38-.15s-.24-.14-.34-.23-.18-.21-.24-.35-.09-.32-.09-.52c0-.17.03-.33.1-.48.07-.16.16-.3.29-.42s.28-.22.47-.29c.18-.07.4-.11.63-.11.27,0,.52.04.74.13.23.08.42.2.58.35l-.21.4h-.03Z"/><path class="cls-1" d="m98.9,40.08v1.34h1.7v.68h-1.7v1.85h-.85v-4.54h2.87v.67s-2.02,0-2.02,0Z"/><path class="cls-1" d="m106.06,41.68c0,.33-.05.64-.16.93-.11.28-.27.53-.47.74s-.44.37-.73.49c-.28.12-.6.17-.94.17s-.66-.06-.94-.17c-.28-.12-.53-.28-.73-.49-.2-.21-.36-.45-.47-.74-.11-.28-.17-.59-.17-.93s.06-.64.17-.93.27-.53.47-.74c.2-.21.44-.37.73-.49.28-.12.6-.17.94-.17.23,0,.45.03.65.08.2.05.39.13.56.23s.32.22.46.36.25.29.34.47c.09.17.17.36.22.56s.07.41.07.63h0Zm-.86,0c0-.25-.03-.47-.1-.67-.07-.2-.16-.37-.29-.5-.12-.14-.27-.24-.45-.32s-.38-.11-.6-.11-.42.04-.6.11-.33.18-.45.32c-.12.14-.22.31-.29.5-.07.2-.1.42-.1.67s.03.47.1.67c.07.2.16.37.29.5.12.14.28.24.45.32s.38.11.6.11.42-.04.6-.11.33-.18.45-.32c.12-.14.22-.3.29-.5s.1-.42.1-.67Z"/><path class="cls-1" d="m110.61,43.95h-.76c-.14,0-.25-.06-.31-.17l-.96-1.45s-.07-.09-.12-.12c-.04-.02-.11-.03-.19-.03h-.36v1.78h-.85v-4.54h1.39c.31,0,.57.03.79.1.22.06.4.15.54.27s.25.25.31.41c.07.16.1.34.1.53,0,.15-.02.3-.07.43-.05.14-.11.26-.19.37s-.19.21-.31.29c-.12.08-.27.15-.43.2.05.03.1.07.15.11s.09.09.13.15l1.14,1.68h0Zm-2.17-2.39c.16,0,.3-.02.42-.06.12-.04.22-.09.29-.16.08-.07.13-.15.17-.25s.06-.2.06-.32c0-.23-.08-.41-.23-.53s-.38-.19-.7-.19h-.54v1.51h.53Z"/><path class="cls-1" d="m116.28,39.41v4.54h-.74v-2.93c0-.12,0-.24.02-.38l-1.37,2.58c-.06.12-.16.19-.3.19h-.12c-.13,0-.23-.06-.3-.19l-1.39-2.59c0,.07.01.14.02.2v3.12h-.74v-4.54h.74s.05,0,.07.02c.02,0,.04.02.06.04s.04.04.05.08l1.36,2.52c.04.07.07.14.1.21s.06.14.09.22c.03-.08.06-.15.09-.22s.06-.14.1-.21l1.34-2.52s.03-.06.05-.08.04-.03.06-.04c.02,0,.05,0,.07-.02h.74Z"/><path class="cls-1" d="m118.39,43.95h-.85v-4.54h.85v4.54Z"/><path class="cls-1" d="m123.49,39.41v4.54h-.43c-.07,0-.12,0-.17-.03-.05-.02-.09-.06-.13-.11l-2.37-3.03c.01.14.02.27.02.38v2.79h-.74v-4.54h.53s.05,0,.07.02c.02,0,.04.02.06.04s.04.04.06.07l2.38,3.04c0-.07-.01-.15-.02-.22v-2.96h.74Z"/><path class="cls-1" d="m128.51,41.67v1.84c-.23.17-.48.29-.74.37-.26.08-.54.12-.84.12-.37,0-.71-.06-1.01-.17-.3-.12-.56-.28-.77-.48s-.38-.45-.49-.74c-.12-.28-.17-.6-.17-.93s.06-.65.17-.94c.11-.28.27-.53.47-.74.2-.21.45-.36.74-.48.29-.11.62-.17.98-.17.18,0,.36,0,.52.04.16.03.31.07.45.12s.26.11.38.19c.11.07.22.15.31.24l-.24.38c-.04.06-.09.1-.15.11-.06,0-.13,0-.2-.05-.07-.04-.14-.08-.21-.12-.07-.04-.15-.07-.23-.1s-.18-.05-.29-.07-.23-.03-.37-.03c-.22,0-.43.04-.61.11-.18.08-.34.18-.46.32-.13.14-.23.31-.3.51-.07.2-.1.42-.1.66,0,.26.04.49.11.7.07.2.18.38.31.52.14.14.3.25.49.32.19.07.4.11.64.11.17,0,.32-.02.45-.05.13-.04.26-.08.39-.14v-.82h-.57c-.05,0-.1-.02-.13-.05s-.05-.07-.05-.11v-.48h1.52Z"/><path class="cls-1" d="m134.26,43.25v.7h-2.66v-4.54h.85v3.85h1.82-.01Z"/><path class="cls-1" d="m135.89,43.95h-.85v-4.54h.85v4.54Z"/><path class="cls-1" d="m141.06,39.41l-1.84,4.54h-.76l-1.84-4.54h.68c.07,0,.13.02.18.05.05.04.08.08.1.14l1.07,2.77c.04.09.07.19.1.3s.06.22.09.34c.03-.12.05-.23.08-.34s.06-.21.1-.3l1.07-2.77s.05-.09.1-.13.11-.06.18-.06h.69Z"/><path class="cls-1" d="m142.64,40.08v1.26h1.59v.65h-1.59v1.29h2.02v.68h-2.87v-4.54h2.87v.67h-2.02Z"/><path class="cls-1" d="m148.13,40.23s-.05.08-.08.1c-.03.02-.06.03-.11.03-.04,0-.09-.02-.14-.05s-.11-.07-.18-.11c-.07-.04-.15-.08-.25-.11s-.21-.05-.34-.05c-.12,0-.22,0-.31.04-.09.03-.16.07-.22.12s-.1.11-.13.18-.04.15-.04.23c0,.11.03.2.09.27s.14.13.24.18.21.1.34.14c.13.04.25.08.39.13.13.05.26.1.39.16s.24.14.34.23c.1.09.18.2.24.33s.09.29.09.48c0,.21-.04.4-.11.58s-.17.34-.31.47-.3.24-.49.31c-.19.08-.42.11-.67.11-.14,0-.29,0-.43-.04s-.27-.07-.4-.12c-.13-.05-.25-.12-.36-.19s-.21-.15-.3-.25l.25-.41s.05-.05.08-.07.07-.03.11-.03c.05,0,.11.02.17.06s.13.09.22.14c.08.05.18.1.29.14s.25.06.4.06c.24,0,.43-.06.56-.17.13-.11.2-.28.2-.49,0-.12-.03-.22-.09-.29-.06-.08-.14-.14-.24-.19s-.21-.09-.34-.13-.25-.07-.38-.12c-.13-.04-.26-.09-.38-.15s-.24-.14-.34-.23c-.1-.09-.18-.21-.24-.35-.06-.14-.09-.32-.09-.52,0-.17.03-.33.1-.48.07-.16.16-.3.29-.42.13-.12.28-.22.47-.29.18-.07.4-.11.63-.11.27,0,.52.04.74.13.23.08.42.2.58.35l-.21.4h-.03Z"/><path class="cls-1" d="m149.05,43.52c0-.06,0-.13.04-.19.02-.06.06-.11.1-.15.04-.04.09-.08.15-.1.06-.03.12-.04.19-.04s.13,0,.19.04c.06.03.11.06.15.1s.08.09.1.15c.03.06.04.12.04.19s0,.13-.04.19c-.03.06-.06.11-.1.15-.04.04-.09.08-.15.1-.06.02-.12.04-.19.04s-.13,0-.19-.04c-.06-.02-.11-.06-.15-.1-.04-.04-.08-.09-.1-.15s-.04-.12-.04-.19Z"/></g><g><path class="cls-1" d="m81.57,4.98l-1.84,4.54h-.76l-1.84-4.54h.68c.07,0,.13.02.18.05.05.04.08.08.1.14l1.07,2.77c.04.09.07.19.1.3.03.11.06.22.09.34.03-.12.05-.23.08-.34.03-.11.06-.21.1-.3l1.07-2.77s.05-.09.1-.13c.05-.04.11-.06.18-.06h.69Z"/><path class="cls-1" d="m83.13,9.52h-.85v-4.54h.85v4.54Z"/><path class="cls-1" d="m88.15,7.24v1.84c-.23.17-.48.29-.74.37-.26.08-.54.12-.84.12-.37,0-.71-.06-1.01-.17-.3-.12-.56-.28-.77-.48-.21-.21-.38-.45-.49-.74-.12-.28-.17-.6-.17-.93s.06-.65.17-.94c.11-.28.27-.53.47-.74s.45-.36.74-.48c.29-.11.62-.17.98-.17.18,0,.36.01.52.04.16.03.31.07.45.12.14.05.26.11.38.19s.22.15.31.24l-.24.38c-.04.06-.09.1-.15.11-.06.01-.13,0-.2-.05l-.21-.12c-.07-.04-.15-.07-.23-.1-.08-.03-.18-.05-.29-.07s-.23-.03-.37-.03c-.22,0-.43.04-.61.11s-.34.18-.46.32c-.13.14-.23.31-.3.51-.07.2-.1.42-.1.66,0,.26.04.49.11.7s.18.38.31.52c.14.14.3.25.49.32.19.07.4.11.64.11.17,0,.32-.02.45-.05.13-.04.26-.08.39-.14v-.82h-.57c-.05,0-.1-.02-.13-.05s-.05-.07-.05-.11v-.48h1.52Z"/><path class="cls-1" d="m93.55,7.25c0,.33-.05.64-.16.93-.11.28-.27.53-.47.74s-.44.37-.73.49c-.28.12-.6.17-.94.17s-.66-.06-.94-.17c-.28-.12-.53-.28-.73-.49-.2-.21-.36-.45-.47-.74-.11-.28-.17-.59-.17-.93s.06-.64.17-.93.27-.53.47-.74c.2-.21.44-.37.73-.49.28-.12.6-.17.94-.17.23,0,.45.03.65.08.2.05.39.13.56.23s.32.22.46.36c.14.14.25.29.34.47.09.17.17.36.22.56s.07.41.07.63h0Zm-.86,0c0-.25-.03-.47-.1-.67-.07-.2-.16-.37-.29-.5-.12-.14-.27-.24-.45-.32-.18-.07-.38-.11-.6-.11s-.42.04-.6.11-.33.18-.45.32c-.12.14-.22.31-.29.5-.07.2-.1.42-.1.67s.03.47.1.67c.07.2.16.37.29.5.12.14.28.24.45.32s.38.11.6.11.42-.04.6-.11.33-.18.45-.32c.12-.14.22-.3.29-.5s.1-.42.1-.67Z"/><path class="cls-1" d="m99.43,8.45s.09.02.12.05l.33.36c-.18.23-.41.4-.68.52s-.59.18-.97.18c-.34,0-.64-.06-.91-.17-.27-.12-.5-.28-.69-.48-.19-.21-.34-.45-.44-.74-.1-.28-.15-.6-.15-.93s.05-.65.16-.94c.11-.28.26-.53.46-.73s.43-.36.71-.48c.27-.11.58-.17.91-.17s.62.05.88.16.48.25.66.43l-.28.39s-.04.05-.06.07-.06.03-.11.03c-.03,0-.06,0-.1-.03-.03-.02-.07-.04-.11-.07s-.09-.06-.14-.09-.11-.06-.18-.09-.15-.05-.24-.07-.2-.03-.32-.03c-.2,0-.39.04-.56.11s-.31.18-.44.31c-.12.14-.22.3-.28.5s-.1.42-.1.68.04.48.11.68.17.37.29.5c.12.14.27.24.44.31.17.07.35.11.54.11.12,0,.22,0,.31-.02.09-.01.18-.03.26-.06.08-.03.15-.06.22-.11.07-.04.14-.1.21-.16.02-.02.04-.03.07-.05.02-.01.05-.02.07-.02v.05Z"/><path class="cls-1" d="m104.92,7.25c0,.33-.05.64-.16.93-.11.28-.27.53-.47.74-.2.21-.44.37-.73.49-.28.12-.6.17-.94.17s-.66-.06-.94-.17c-.28-.12-.53-.28-.73-.49s-.36-.45-.47-.74c-.11-.28-.17-.59-.17-.93s.06-.64.17-.93.27-.53.47-.74.44-.37.73-.49c.28-.12.6-.17.94-.17.23,0,.45.03.65.08.2.05.39.13.56.23s.32.22.46.36.25.29.34.47c.09.17.17.36.22.56s.07.41.07.63h0Zm-.86,0c0-.25-.03-.47-.1-.67-.07-.2-.16-.37-.29-.5-.12-.14-.27-.24-.45-.32s-.38-.11-.6-.11-.42.04-.6.11-.33.18-.45.32c-.12.14-.22.31-.29.5-.07.2-.1.42-.1.67s.03.47.1.67c.07.2.16.37.29.5.12.14.28.24.45.32s.38.11.6.11.42-.04.6-.11.33-.18.45-.32c.12-.14.22-.3.29-.5s.1-.42.1-.67Z"/><path class="cls-1" d="m107.72,8.84c.16,0,.31-.03.44-.08s.24-.13.33-.23.16-.22.2-.36c.05-.14.07-.3.07-.47v-2.72h.85v2.72c0,.27-.04.52-.13.75s-.21.43-.37.59c-.16.17-.36.3-.59.39s-.49.14-.79.14-.56-.05-.79-.14-.43-.22-.59-.39c-.16-.17-.29-.36-.37-.59s-.13-.48-.13-.75v-2.72h.85v2.72c0,.17.02.33.07.47s.12.26.2.36.2.18.33.23.27.08.44.08h-.02Z"/><path class="cls-1" d="m114.64,4.98v4.54h-.43c-.07,0-.12-.01-.17-.03s-.09-.06-.13-.11l-2.37-3.03c.01.14.02.27.02.38v2.79h-.74v-4.54h.53s.05,0,.07.02c.02,0,.04.02.06.04s.04.04.06.07l2.38,3.04c0-.07-.01-.15-.02-.22v-2.96h.74Z"/><path class="cls-1" d="m118.99,5.67h-1.37v3.85h-.85v-3.85h-1.37v-.69h3.59s0,.69,0,.69Z"/><path class="cls-1" d="m122.01,7.76v1.76h-.84v-1.76l-1.66-2.78h.74c.07,0,.13.02.17.05s.08.08.11.14l.83,1.52c.05.09.09.17.13.25s.07.16.1.24l.09-.24c.03-.08.08-.16.12-.25l.83-1.52s.06-.09.1-.13c.05-.04.1-.06.18-.06h.75l-1.66,2.78h.01Z"/><path class="cls-1" d="m127.47,4.98c.3,0,.57.04.79.11.22.07.41.17.55.3s.25.28.32.46.11.37.11.58-.04.42-.11.6-.18.34-.33.47-.33.23-.55.31c-.22.07-.48.11-.77.11h-.63v1.6h-.85v-4.54h1.48-.01Zm0,2.28c.15,0,.29-.02.41-.06.12-.04.21-.09.29-.17.08-.07.13-.16.17-.26s.06-.22.06-.35-.02-.23-.06-.33-.09-.18-.17-.25-.17-.12-.29-.16-.25-.05-.41-.05h-.63v1.63s.63,0,.63,0Z"/><path class="cls-1" d="m131.88,8.84c.16,0,.31-.03.44-.08s.24-.13.33-.23c.09-.1.16-.22.2-.36.05-.14.07-.3.07-.47v-2.72h.85v2.72c0,.27-.04.52-.13.75-.09.23-.21.43-.37.59-.16.17-.36.3-.59.39s-.49.14-.79.14-.56-.05-.79-.14-.43-.22-.59-.39-.29-.36-.37-.59c-.09-.23-.13-.48-.13-.75v-2.72h.85v2.72c0,.17.02.33.07.47s.12.26.2.36c.09.1.2.18.33.23s.28.08.44.08h-.02Z"/><path class="cls-1" d="m136.53,4.98c.3,0,.55.03.76.08s.39.14.52.24c.14.1.23.23.3.38.06.15.09.32.09.5,0,.11-.02.21-.05.31s-.08.19-.15.27-.15.16-.25.23-.22.13-.36.18c.62.14.94.48.94,1.01,0,.19-.04.37-.11.53s-.18.3-.32.42c-.14.12-.31.21-.52.28s-.44.1-.7.1h-1.72v-4.53h1.57Zm-.72.65v1.31h.67c.29,0,.51-.05.66-.16.15-.1.22-.27.22-.5s-.07-.41-.2-.51c-.13-.1-.34-.15-.63-.15h-.72Zm.85,3.24c.16,0,.29-.02.4-.06s.19-.09.26-.15c.06-.06.11-.14.14-.22s.04-.17.04-.27-.02-.19-.05-.27-.08-.15-.15-.2c-.07-.06-.15-.1-.26-.13s-.23-.04-.38-.04h-.85v1.33h.85Z"/><path class="cls-1" d="m142.02,8.82v.7h-2.66v-4.54h.85v3.85h1.82-.01Z"/><path class="cls-1" d="m143.64,9.52h-.85v-4.54h.85v4.54Z"/><path class="cls-1" d="m148.02,8.45s.09.02.12.05l.33.36c-.18.23-.41.4-.68.52-.27.12-.59.18-.97.18-.34,0-.64-.06-.91-.17-.27-.12-.5-.28-.69-.48-.19-.21-.34-.45-.44-.74-.1-.28-.15-.6-.15-.93s.05-.65.16-.94c.11-.28.26-.53.46-.73.2-.21.43-.36.71-.48.27-.11.58-.17.91-.17s.62.05.88.16c.26.11.47.25.66.43l-.28.39s-.04.05-.06.07c-.03.02-.06.03-.11.03-.03,0-.06,0-.1-.03-.03-.02-.07-.04-.11-.07s-.09-.06-.14-.09-.11-.06-.18-.09c-.07-.03-.15-.05-.24-.07-.09-.02-.2-.03-.32-.03-.2,0-.39.04-.56.11s-.31.18-.44.31-.22.3-.28.5-.1.42-.1.68.04.48.11.68.17.37.29.5c.12.14.27.24.44.31.17.07.35.11.54.11.12,0,.22,0,.31-.02.09-.01.18-.03.26-.06.08-.03.15-.06.22-.11.07-.04.14-.1.21-.16.02-.02.04-.03.07-.05s.05-.02.07-.02v.05Z"/></g><g><path class="cls-1" d="m60.07,29.21h-16.51v-1.42c0-.29.21-.55.5-.61.29-.06,1.87-.37,1.87-.37V8.04s-1.58-.31-1.87-.37c-.29-.06-.5-.32-.5-.61v-1.42h7.93v1.42c0,.29-.21.55-.5.61-.28.06-1.82.36-1.87.37v18.49h8.5c.08-.94.15-1.76.17-1.89.06-.32.35-.56.68-.56h1.59v5.13h.01Z"/><path class="cls-1" d="m69.15,27.79v1.42h-7.67v-1.42c0-.29.21-.55.5-.61.29-.06,1.87-.37,1.87-.37v-11.86s-1.58-.31-1.87-.37c-.29-.06-.5-.32-.5-.61v-1.42h5.3v14.26s1.58.31,1.87.37c.29.06.5.32.5.61Zm-5.73-19.67c-.11-.25-.16-.51-.16-.8s.05-.56.16-.81c.11-.26.26-.48.45-.67s.41-.34.66-.45c.25-.11.51-.16.8-.16s.55.05.81.16c.25.11.47.26.67.45.19.19.35.42.46.67.12.26.17.53.17.81s-.06.55-.17.8-.27.47-.46.66-.41.34-.67.45c-.25.11-.52.16-.81.16s-.55-.06-.8-.16c-.25-.11-.47-.26-.66-.45s-.34-.41-.45-.66Z"/><path class="cls-1" d="m86.47,20.82v.05c0,1.36-.19,2.57-.57,3.63-.38,1.06-.9,1.96-1.55,2.69-.66.73-1.43,1.29-2.33,1.67-.89.38-1.86.58-2.9.58-2.97,0-7.35-.92-7.35-.92V7.36c-.39-.06-1.85-.31-2.1-.36-.29-.06-.5-.32-.5-.61v-1.42h5.54v9.97c.69-.8,1.48-1.44,2.38-1.93.89-.49,1.92-.73,3.07-.73.96,0,1.84.18,2.61.54.78.36,1.44.9,1.99,1.62.55.72.97,1.61,1.27,2.66.3,1.06.44,2.28.44,3.66v.05h0Zm-3.35,2.75c.22-.74.31-1.59.33-2.53v-.26c0-1.09-.1-2.02-.29-2.8-.19-.78-.47-1.42-.83-1.92s-.81-.86-1.33-1.09c-.53-.23-1.12-.35-1.79-.35-.95,0-1.79.22-2.51.66s-1.38,1.06-1.98,1.86v9.48c.43.11,1.85.44,3.28.52.21.01.42.02.63.02h.21c.66-.03,1.26-.16,1.79-.41.6-.28,1.1-.69,1.52-1.22.42-.53.74-1.19.97-1.97h0Z"/><path class="cls-1" d="m97.39,12.25c.86,0,1.62.2,2.29.59l-.38,2.19c-.08.27-.22.41-.43.41s-.47-.05-.79-.16c-.32-.1-.76-.16-1.33-.16-1.91,0-3.33,1.16-4.28,3.47v8.21c.27.05.9.18,1.87.38.33.07.49.27.49.61v1.41h-7.66v-1.41c0-.34.16-.54.49-.61l1.87-.38v-11.85c-1.05-.21-1.68-.33-1.87-.38-.33-.07-.49-.27-.49-.61v-1.41h4.05c.32,0,.54.06.66.18s.2.33.25.62l.2,2.6c1.22-2.47,2.91-3.7,5.06-3.7Z"/><path class="cls-1" d="m115.37,27.75v1.42h-3.43c-.29,0-.52-.04-.69-.13-.18-.09-.29-.27-.35-.56l-.33-1.55c-.44.39-.87.75-1.28,1.06-.42.31-.86.58-1.32.79-.46.21-.95.38-1.47.49-.52.11-1.1.16-1.73.16s-1.25-.09-1.82-.27c-.56-.18-1.06-.45-1.47-.82-.42-.36-.75-.82-.99-1.38-.25-.56-.37-1.21-.37-1.97,0-.66.18-1.3.54-1.91s.95-1.15,1.75-1.63c.81-.47,1.86-.86,3.17-1.16,1.3-.3,2.9-.45,4.79-.45v-1.31c0-1.3-.28-2.29-.83-2.95-.55-.67-1.37-1-2.46-1-.71,0-1.31.09-1.8.27-.49.18-.91.38-1.27.61-.36.22-.66.43-.92.61-.26.18-.51.27-.76.27-.2,0-.37-.05-.52-.16-.15-.1-.27-.23-.35-.39l-.53-.94c.92-.89,1.91-1.55,2.98-1.99,1.06-.44,2.24-.66,3.54-.66.93,0,1.76.15,2.48.46s1.33.73,1.83,1.28c.49.55.87,1.21,1.12,1.99.25.78.38,1.63.38,2.57v8.31c.46.09,1.41.28,1.63.32.29.06.5.32.5.61h-.02Zm-5-6.04c-1.35,0-2.49.09-3.44.26-.94.17-1.71.39-2.3.67-.59.28-1.02.6-1.29.98-.27.38-.4.79-.4,1.26s.07.82.21,1.14.33.58.58.79c.24.2.53.35.85.45.33.09.69.14,1.07.14.52,0,.99-.05,1.41-.16.43-.1.83-.25,1.21-.44s.74-.42,1.09-.7c.35-.27.68-.59,1.01-.94v-3.44h0Z"/><path class="cls-1" d="m126.89,12.25c.86,0,1.62.2,2.29.59l-.38,2.19c-.08.27-.22.41-.43.41s-.47-.05-.79-.16c-.32-.1-.76-.16-1.33-.16-1.91,0-3.33,1.16-4.28,3.47v8.21c.27.05.9.18,1.87.38.33.07.49.27.49.61v1.41h-7.66v-1.41c0-.34.16-.54.49-.61l1.87-.38v-11.85c-1.05-.21-1.68-.33-1.87-.38-.33-.07-.49-.27-.49-.61v-1.41h4.05c.32,0,.54.06.66.18s.2.33.25.62l.2,2.6c1.22-2.47,2.91-3.7,5.06-3.7Z"/><path class="cls-1" d="m148.57,12.55v1.41c0,.34-.16.54-.49.61-.1.02-.39.08-.87.18s-.77.15-.86.16l-8.27,19.21c-.22.48-.57.72-1.05.72h-2.17l3.04-6.61-5.85-13.37c-.8-.15-1.3-.25-1.5-.3-.33-.07-.49-.27-.49-.61v-1.41h7.47v1.41c0,.34-.16.54-.49.61-.18.04-.78.16-1.81.36l3.7,8.72c.18.44.32.93.44,1.46.2-.65.36-1.14.49-1.48l3.6-8.7c-.89-.18-1.49-.3-1.8-.36-.31-.07-.47-.27-.47-.61v-1.41h7.38Z"/></g></svg>